# AST/ASF file generated using VICON BodyLanguage
# -----------------------------------------------
:version 1.10
:name VICON
:units
  mass 1.0
  length 0.45
  angle deg
:documentation
   .ast/.asf automatically generated from VICON data using
   VICON BodyBuilder and BodyLanguage model FoxedUp or BRILLIANT.MOD
:root
   order TX TY TZ RX RY RZ
   axis XYZ
   position 0 0 0  
   orientation 0 -0 0 
:bonedata
  begin
     id 1 
     name lhipjoint
     direction 0.500677 -0.737119 0.453848 
     length 2.34727 
     axis 0 -0 0  XYZ
  end
  begin
     id 2 
     name lfemur
     direction 0.34202 -0.939693 0  
     length 7.53653  
     axis 0 -0 20  XYZ
    dof rx ry rz
    limits (-160.0 20.0)
           (-70.0 70.0)
           (-60.0 70.0)
  end
  begin
     id 3 
     name ltibia
     direction 0.34202 -0.939693 0   
     length 6.85572   
     axis 0 -0 20   XYZ
    dof rx
    limits (-10.0 170.0)
  end
  begin
     id 4 
     name lfoot
     direction 0.155313 -0.426718 0.890949   
     length 2.18324   
     axis -90 -1.13533e-015 20   XYZ
    dof rx rz
    limits (-45.0 90.0)
           (-70.0 20.0)
  end
  begin
     id 5 
     name ltoes
     direction 1.53474e-011 -4.21647e-011 1   
     length 1.06748   
     axis -90 -1.13533e-015 20   XYZ
    dof rx
    limits (-90.0 20.0)
  end
  begin
     id 6 
     name rhipjoint
     direction -0.632471 -0.659587 0.406111   
     length 2.62319  
     axis 0 -0 0  XYZ 
  end
  begin
     id 7 
     name rfemur
     direction -0.34202 -0.939693 0   
     length 7.21735   
     axis 0 -0 -20   XYZ
    dof rx ry rz
    limits (-160.0 20.0)
           (-70.0 70.0)
           (-70.0 60.0)
  end
  begin
     id 8 
     name rtibia
     direction -0.34202 -0.939693 0   
     length 7.02558   
     axis 0 -0 -20   XYZ
    dof rx
    limits (-10.0 170.0)
 end
 begin
     id 9 
     name rfoot
     direction -0.16057 -0.441164 0.882945   
     length 2.10014  
     axis -90 1.13533e-015 -20   XYZ
    dof rx rz
    limits (-45.0 90.0)
           (-20.0 70.0)
  end
  begin
     id 10 
     name rtoes
     direction -1.53553e-011 -4.2192e-011 1   
     length 1.02554   
     axis -90 1.13533e-015 -20   XYZ
    dof rx
    limits (-90.0 20.0)
  end
  begin
     id 11 
     name lowerback
     direction 0.0401429 0.998861 -0.0258085   
     length 1.80848   
     axis 0 -0 0   XYZ
    dof rx ry rz
    limits (-20.0 45.0)
           (-30.0 30.0)
           (-30.0 30.0)
  end
  begin
     id 12 
     name upperback
     direction -0.0130978 0.999914 -0.000352645   
     length 1.8116   
     axis 0 -0 0   XYZ
    dof rx ry rz
    limits (-20.0 45.0)
           (-30.0 30.0)
           (-30.0 30.0)
  end
  begin
     id 13 
     name thorax
     direction -0.0300198 0.999453 0.0138573   
     length 1.81778   
     axis 0 -0 0   XYZ
    dof rx ry rz
    limits (-20.0 45.0)
           (-30.0 30.0)
           (-30.0 30.0)
  end
  begin
     id 14 
     name lowerneck
     direction -0.0401726 0.999191 -0.00173647   
     length 2.10594   
     axis 0 -0 0   XYZ
    dof rx ry rz
    limits (-20.0 45.0)
           (-30.0 30.0)
           (-30.0 30.0)
  end
  begin
     id 15 
     name upperneck
     direction 0.0119835 0.998501 0.0534085   
     length 2.07325   
     axis 0 -0 0   XYZ
    dof rx ry rz
    limits (-20.0 45.0)
           (-30.0 30.0)
           (-30.0 30.0)
  end
  begin
     id 16
     name head
     direction 0.00628309 0.999826 0.0175921  
     length 2.15096  
     axis 0 -0 0   XYZ
    dof rx ry rz
    limits (-20.0 45.0)
           (-30.0 30.0)
           (-30.0 30.0)
  end
  begin
     id 17 
     name lclavicle
     direction 0.895501 0.429681 -0.115981  
     length 4.18092  
     axis 0 -0 0   XYZ
    dof ry rz
    limits (-20.0 10.0)
           (0.0 20.0)
  end
  begin
     id 18 
     name lhumerus
     direction 1 -4.48961e-011 -3.38433e-028   
     length 5.77237   
     axis 180 -30 -90   XYZ
    dof rx ry rz
    limits (-60.0 90.0)
           (-90.0 90.0)
           (-90.0 90.0)
  end
  begin
     id 19
     name lradius
     direction 1 -4.4901e-011 1.11983e-026   
     length 2.91878   
     axis 180 -30 -90   XYZ
    dof rx
    limits (-10.0 170.0)
  end
  begin
     id 20
     name lwrist
     direction 1 -4.48934e-011 1.88176e-026   
     length 1.45939   
     axis -1.23311e-014 90 90   XYZ
    dof ry
    limits (-180.0 0.0)
 end
  begin
     id 21 
     name lhand
     direction 1 -4.4895e-011 3.76352e-026   
     length 1.06566   
     axis -2.40147e-014 90 90   XYZ
    dof rx rz
    limits (-90.0 90.0)
           (-45.0 45.0)
  end
  begin
     id 22 
     name lfingers
     direction 1 -4.49005e-011 7.52705e-026   
     length 0.859162   
     axis -4.80295e-014 90 90   XYZ
    dof rx
    limits (0.0 90.0)
  end
  begin
     id 23
     name lthumb
     direction 0.707107 -6.34885e-011 0.707107   
     length 1.23359   
     axis -90 45 -9.86935e-015   XYZ
    dof rx rz
    limits (-45.0 45.0)
           (-45.0 45.0)
  end
  begin
     id 24 
     name rclavicle
     direction -0.91006 0.40451 -0.0903492   
     length 4.23293  
     axis 0 -0 0   XYZ 
    dof ry rz
    limits (-10.0 20.0)
           (-20.0 0.0)
  end
  begin
     id 25 
     name rhumerus
     direction -1 -4.4897e-011 1.7415e-027  
     length 5.49854   
     axis 180 30 90   XYZ
    dof rx ry rz
    limits (-90.0 60.0)
           (-90.0 90.0)
           (-90.0 90.0)
  end
  begin
     id 26 
     name rradius
     direction -1 -4.48963e-011 1.21259e-026   
     length 3.1186   
     axis 180 30 90   XYZ
    dof rx
    limits (-10.0 170.0)
  end
  begin
     id 27 
     name rwrist
     direction -1 -4.48967e-011 1.88176e-026   
     length 1.5593   
     axis -1.23311e-014 -90 -90   XYZ
    dof ry
    limits (-180.0 0.0)
  end
  begin
     id 28
     name rhand
     direction -1 -4.4895e-011 3.76352e-026   
     length 0.71207   
     axis -2.40147e-014 -90 -90   XYZ
    dof rx rz
    limits (-90.0 90.0)
           (-45.0 45.0)
  end
  begin
     id 29
     name rfingers
     direction -1 -4.49005e-011 7.52705e-026   
     length 0.574089   
     axis -4.80295e-014 -90 -90   XYZ
    dof rx
    limits (0.0 90.0)
  end
  begin
     id 30
     name rthumb
     direction -0.707107 -6.34982e-011 0.707107   
     length 0.824281   
     axis -90 -45 9.86935e-015   XYZ
    dof rx rz
    limits (-45.0 45.0)
           (-45.0 45.0)
  end
:hierarchy
  begin
    root lhipjoint rhipjoint lowerback
    lhipjoint lfemur
    lfemur ltibia
    ltibia lfoot
    lfoot ltoes
    rhipjoint rfemur
    rfemur rtibia
    rtibia rfoot
    rfoot rtoes
    lowerback upperback
    upperback thorax
    thorax lowerneck lclavicle rclavicle
    lowerneck upperneck
    upperneck head
    lclavicle lhumerus
    lhumerus lradius
    lradius lwrist
    lwrist lhand lthumb
    lhand lfingers
    rclavicle rhumerus
    rhumerus rradius
    rradius rwrist
    rwrist rhand rthumb
    rhand rfingers
  end

#!OML:ASF C:\ViconDB\ViconDB\414\Spring2016\042216\male.ASF
:FULLY-SPECIFIED
:DEGREES
271
root 1.67592 18.0083 7.94172 -157.586 57.7198 -160.434
lowerback 3.98174 -2.32043 6.18514
upperback 0.702022 -2.85444 -1.94506
thorax -1.91045 -1.46972 -5.32443
lowerneck 1.02924 5.74136 -7.64238
upperneck -19.3331 7.76448 -1.55413
head -6.30211 4.67807 0.277199
rclavicle -8.46823e-014 -7.15625e-014
rhumerus -16.2925 -10.9561 -24.5816
rradius 59.3682
rwrist -4.84284
rhand -5.52111 -31.3278
rfingers 7.12502
rthumb 20.2927 -60.2877
lclavicle -8.46823e-014 -7.15625e-014
lhumerus -45.035 29.6634 13.7617
lradius 58.042
lwrist 24.6293
lhand -37.8106 14.8197
lfingers 7.12502
lthumb -10.8566 44.5191
rfemur -41.7913 -10.8646 33.549
rtibia 100.03
rfoot -5.77734 -10.692
rtoes -18.0567
lfemur -8.65415 -3.55911 -13.6993
ltibia 5.98465
lfoot -8.05881 6.81144
ltoes -17.5965
272
root 1.84197 17.8681 7.92353 -158.546 57.2377 -161.156
lowerback 4.86243 -2.65189 5.63755
upperback 0.803116 -3.26787 -1.97903
thorax -2.3282 -1.67967 -4.98525
lowerneck 1.3078 5.905 -7.68783
upperneck -20.0473 7.99107 -1.5459
head -6.59 4.81911 0.243703
rclavicle 1.05356e-014 3.02153e-014
rhumerus -16.0382 -11.356 -25.6459
rradius 59.2991
rwrist -5.05408
rhand -5.85628 -31.6085
rfingers 7.12502
rthumb 19.9705 -60.6023
lclavicle 1.05356e-014 3.02153e-014
lhumerus -46.173 29.8215 14.6999
lradius 58.4086
lwrist 25.4498
lhand -38.2038 15.068
lfingers 7.12502
lthumb -11.2359 44.7471
rfemur -44.3063 -10.7016 31.9863
rtibia 101.107
rfoot -6.97811 -10.5716
rtoes -18.7801
lfemur -11.2508 -3.98818 -13.9936
ltibia 13.6148
lfoot -13.5656 8.59953
ltoes -16.5747
273
root 1.97362 17.7183 7.92891 -159.35 56.3725 -161.636
lowerback 6.10941 -3.12775 5.25136
upperback 0.875649 -3.84913 -1.81528
thorax -2.98931 -1.9776 -4.48635
lowerneck 1.68829 6.15456 -7.99995
upperneck -20.9331 8.31802 -1.5229
head -6.97238 5.03247 0.238419
rclavicle 1.43125e-014 1.59028e-014
rhumerus -15.6577 -12.1773 -26.8967
rradius 59.3066
rwrist -4.58774
rhand -6.15749 -31.8266
rfingers 7.12502
rthumb 19.681 -60.8503
lclavicle 1.43125e-014 1.59028e-014
lhumerus -47.4384 29.7594 16.0251
lradius 58.8919
lwrist 26.4322
lhand -39.1023 15.2177
lfingers 7.12502
lthumb -12.1023 44.8477
rfemur -46.9518 -10.6886 30.6588
rtibia 102.024
rfoot -8.25964 -10.0034
rtoes -19.6596
lfemur -13.7232 -3.68408 -14.0048
ltibia 20.3358
lfoot -18.3851 8.64169
ltoes -20.3401
274
root 2.07887 17.5501 7.95671 -160.419 55.2558 -162.153
lowerback 7.5953 -3.64836 5.01824
upperback 1.17714 -4.47131 -1.76295
thorax -3.55765 -2.28283 -4.1597
lowerneck 1.83362 6.26758 -8.31654
upperneck -21.8282 8.52632 -1.33267
head -7.32423 5.18391 0.302358
rclavicle -2.38542e-014 -9.54166e-015
rhumerus -15.699 -13.5561 -28.3365
rradius 59.7042
rwrist -4.08168
rhand -6.29781 -31.8464
rfingers 7.12502
rthumb 19.5461 -60.8839
lclavicle -2.38542e-014 -9.54166e-015
lhumerus -47.8393 30.8685 17.1512
lradius 58.1417
lwrist 26.2088
lhand -39.5763 15.0418
lfingers 7.12502
lthumb -12.5593 44.6443
rfemur -49.5491 -10.9227 29.2826
rtibia 102.914
rfoot -9.20779 -8.80525
rtoes -18.6595
lfemur -16.0968 -3.67185 -13.8165
ltibia 26.5727
lfoot -21.1094 8.51924
ltoes -20.4371
275
root 2.17977 17.3704 8.00119 -161.665 53.876 -162.801
lowerback 8.97408 -4.15776 4.70032
upperback 1.7024 -5.08621 -1.68943
thorax -3.81186 -2.56419 -3.75812
lowerneck 1.35069 6.34457 -8.75186
upperneck -22.2213 8.75629 -1.05279
head -7.41447 5.3388 0.449443
rclavicle 6.87795e-014 -6.36111e-015
rhumerus -15.8071 -15.2177 -29.5474
rradius 60.0263
rwrist -4.22304
rhand -6.34345 -31.3888
rfingers 7.12502
rthumb 19.5022 -60.4307
lclavicle 6.87795e-014 -6.36111e-015
lhumerus -47.7752 31.9045 19.0022
lradius 57.8512
lwrist 26.4387
lhand -40.377 15.2554
lfingers 7.12502
lthumb -13.3312 44.8089
rfemur -52.1329 -11.1536 27.8681
rtibia 103.861
rfoot -10.2618 -8.02547
rtoes -19.9125
lfemur -18.1676 -3.68241 -13.5475
ltibia 32.0404
lfoot -22.7659 8.05938
ltoes -18.3643
276
root 2.29148 17.2086 8.06431 -161.466 52.0678 -162.182
lowerback 9.73621 -4.52063 5.32186
upperback 2.32868 -5.43628 -1.48436
thorax -3.65253 -2.71181 -3.81395
lowerneck 0.574635 6.01753 -9.13458
upperneck -22.507 8.52721 -0.562907
head -7.40286 5.2638 0.707382
rclavicle -1.15693e-013 -2.06736e-014
rhumerus -16.1373 -17.521 -30.5799
rradius 59.9183
rwrist -4.58177
rhand -6.18962 -30.9706
rfingers 7.12502
rthumb 19.6501 -59.9974
lclavicle -1.15693e-013 -2.06736e-014
lhumerus -46.5468 33.3117 21.4096
lradius 57.2072
lwrist 26.3016
lhand -40.6134 15.5483
lfingers 7.12502
lthumb -13.559 45.0868
rfemur -55.0135 -11.0029 27.5672
rtibia 104.661
rfoot -10.5341 -7.90872
rtoes -18.9624
lfemur -20.3602 -3.32515 -12.1958
ltibia 36.5222
lfoot -25.0099 6.24745
ltoes -18.6904
277
root 2.4188 17.0897 8.11134 -160.57 50.1184 -161.246
lowerback 10.0983 -4.83127 6.6435
upperback 2.57043 -5.67442 -1.34496
thorax -3.73564 -2.82976 -4.35102
lowerneck 0.250459 5.73817 -9.0747
upperneck -22.609 8.26277 -0.339704
head -7.37159 5.13794 0.799848
rclavicle 1.70955e-014 1.59028e-015
rhumerus -16.7774 -18.8673 -31.3143
rradius 59.9573
rwrist -5.44871
rhand -6.47685 -31.2182
rfingers 7.12502
rthumb 19.3739 -60.273
lclavicle 1.70955e-014 1.59028e-015
lhumerus -45.1469 34.1617 23.6679
lradius 56.547
lwrist 26.1059
lhand -40.3562 15.5091
lfingers 7.12502
lthumb -13.3112 45.064
rfemur -58.1303 -10.8102 27.6591
rtibia 105.342
rfoot -10.5305 -8.35646
rtoes -18.6784
lfemur -22.471 -3.0161 -10.5691
ltibia 39.9143
lfoot -27.1322 4.43976
ltoes -19.943
278
root 2.56358 17.0038 8.13057 -160.411 48.5735 -160.979
lowerback 10.5342 -5.11336 7.52141
upperback 2.71292 -5.91105 -1.31688
thorax -3.93911 -2.94984 -4.74418
lowerneck 0.213955 5.55121 -8.75528
upperneck -22.6752 8.03384 -0.415465
head -7.35605 5.02045 0.741875
rclavicle -7.55382e-015 -7.15625e-014
rhumerus -16.7571 -19.7212 -32.1293
rradius 59.6103
rwrist -6.39253
rhand -7.01021 -31.6758
rfingers 7.12502
rthumb 18.861 -60.7814
lclavicle -7.55382e-015 -7.15625e-014
lhumerus -44.3155 35.0263 25.3456
lradius 55.9001
lwrist 25.6628
lhand -39.4725 15.0251
lfingers 7.12502
lthumb -12.4592 44.6338
rfemur -60.8179 -10.6483 27.0291
rtibia 106.117
rfoot -10.6602 -8.63238
rtoes -18.3971
lfemur -23.5816 -2.97753 -9.5711
ltibia 42.2578
lfoot -28.6001 3.62822
ltoes -19.4204
279
root 2.72084 16.9387 8.10959 -160.632 47.8081 -160.881
lowerback 10.6693 -5.33903 8.23396
upperback 2.93244 -6.11797 -1.39777
thorax -3.89156 -3.04436 -5.18961
lowerneck 0.589034 5.53532 -8.43024
upperneck -22.968 7.95298 -0.690214
head -7.48856 4.98678 0.586958
rclavicle -6.04305e-014 -3.02153e-014
rhumerus -15.7396 -19.8385 -33.2121
rradius 58.872
rwrist -8.15488
rhand -8.58655 -32.2771
rfingers 7.12502
rthumb 17.3444 -61.5232
lclavicle -6.04305e-014 -3.02153e-014
lhumerus -44.181 35.9169 26.2259
lradius 55.2651
lwrist 25.5298
lhand -38.6026 14.6627
lfingers 7.12502
lthumb -11.6204 44.3205
rfemur -62.9043 -10.1438 25.92
rtibia 106.948
rfoot -11.0194 -9.2531
rtoes -19.2482
lfemur -23.5479 -3.38097 -9.01184
ltibia 43.6952
lfoot -30.0789 3.93808
ltoes -20.1802
280
root 2.8848 16.9041 8.06776 -160.418 47.5892 -160.397
lowerback 10.2306 -5.44725 8.94207
upperback 3.23878 -6.22689 -1.38198
thorax -3.41282 -3.07045 -5.59805
lowerneck 0.759954 5.54042 -8.24616
upperneck -23.1182 7.9289 -0.849092
head -7.55237 4.97786 0.498199
rclavicle -7.35503e-014 6.99722e-014
rhumerus -13.9889 -19.907 -34.4329
rradius 57.9177
rwrist -8.9417
rhand -9.63856 -32.7479
rfingers 7.12502
rthumb 16.3317 -62.0802
lclavicle -7.35503e-014 6.99722e-014
lhumerus -44.4102 37.0113 26.5896
lradius 54.5435
lwrist 25.4463
lhand -38.4155 14.2634
lfingers 7.12502
lthumb -11.44 43.9313
rfemur -64.8191 -9.03231 24.8991
rtibia 107.699
rfoot -11.3115 -9.81633
rtoes -18.6485
lfemur -23.014 -4.53809 -8.34183
ltibia 44.4369
lfoot -31.0205 5.43559
ltoes -20.9719
